<svg xmlns="http://www.w3.org/2000/svg" fill="none" viewBox="0 0 20 20">
    <path fill="#FFB900"
        d="M10 5L8.586 3.586A2 2 0 007.172 3H2a1 1 0 00-1 1v12a1 1 0 001 1h16a1 1 0 001-1V6a1 1 0 00-1-1h-8z" />
    <path fill="#FFD75E" d="M10 5L8.586 6.414A2 2 0 017.172 7H1v9a1 1 0 001 1h16a1 1 0 001-1V6a1 1 0 00-1-1h-8z" />
    <path fill="url(#a)" d="M10 5L8.586 6.414A2 2 0 017.172 7H1v9a1 1 0 001 1h16a1 1 0 001-1V6a1 1 0 00-1-1h-8z" />
    <path fill="#E67628"
        d="M2 16.5c-.373 0-.71-.142-.973-.367A.989.989 0 002 17h16c.505 0 .905-.38.973-.867-.262.226-.6.367-.973.367H2z" />
    <path fill="#fff" d="M8.836 6.914L10.75 5H10L8.586 6.414A2 2 0 017.172 7H1v.5h6.422a2 2 0 001.414-.586z"
        opacity=".4" />
    <circle cx="2.5" cy="5" r="1" fill="red"/>
    <circle cx="5" cy="5" r="1" fill="dodgerblue"/>
    <circle cx="7.5" cy="5" r="1" fill="green"/>
    <defs>
        <linearGradient id="a" x1="1" x2="1" y1="5" y2="17" gradientUnits="userSpaceOnUse">
            <stop stop-color="#fff" stop-opacity=".01" />
            <stop offset=".999" stop-color="#FFD75E" stop-opacity=".3" />
        </linearGradient>
    </defs>
</svg>